<?xml version="1.0" encoding="UTF-8"?>
<svg version="1.1" xmlns="http://www.w3.org/2000/svg" width="841" height="810">
<path d="M0 0 C277.53 0 555.06 0 841 0 C841 267.3 841 534.6 841 810 C563.47 810 285.94 810 0 810 C0 542.7 0 275.4 0 0 Z " fill="#EF4444" transform="translate(0,0)"/>
<path d="M0 0 C131.01 0 262.02 0 397 0 C397 55.44 397 110.88 397 168 C462.34 168 527.68 168 595 168 C595 223.44 595 278.88 595 336 C528.18283847 336.04026156 528.18283847 336.04026156 507.51170349 336.05130005 C506.77447943 336.05169472 506.03725536 336.05208938 505.27769117 336.05249601 C480.46520334 336.06574339 455.65271514 336.07624593 430.84022522 336.08468628 C429.62577619 336.08510045 429.62577619 336.08510045 428.38679283 336.08552299 C410.79207932 336.09150855 393.19736569 336.09704895 375.60265189 336.10213066 C366.97444043 336.10462537 358.346229 336.10721847 349.71801758 336.10986328 C348.43008873 336.11025556 348.43008873 336.11025556 347.11614111 336.11065576 C319.2765248 336.11918127 291.4369166 336.134206 263.59730521 336.15259444 C234.99291975 336.17145375 206.38853878 336.18376952 177.78414721 336.18782998 C173.74569634 336.18840631 169.70724548 336.18905758 165.66879463 336.18975449 C164.47653528 336.18995676 164.47653528 336.18995676 163.26018989 336.19016311 C150.45590396 336.19252825 137.65163189 336.20180897 124.84735161 336.21366407 C111.98052478 336.22542992 99.11371172 336.22993812 86.24687969 336.22700275 C78.59872614 336.22547947 70.95062291 336.22955609 63.30247843 336.24159509 C57.59673108 336.24996438 51.89102573 336.24792991 46.18527729 336.24179779 C43.87291903 336.2409498 41.56055657 336.24351236 39.24820661 336.24976636 C36.11249441 336.25775649 32.97703104 336.25348793 29.8413229 336.24609566 C28.93721337 336.25134968 28.03310383 336.25660371 27.10159704 336.26201695 C18.08378122 336.21376223 12.62852696 334.36045388 5.953125 328.09375 C1.12570848 322.91875949 -0.12576296 317.42570341 -0.12304783 310.57271957 C-0.1250387 309.46365501 -0.12702957 308.35459045 -0.12908077 307.21191788 C-0.12616811 305.99437695 -0.12325544 304.77683601 -0.12025452 303.5223999 C-0.12111053 302.23170593 -0.12196655 300.94101196 -0.12284851 299.61120605 C-0.12509481 296.01882619 -0.12107349 292.42647604 -0.11607273 288.83409995 C-0.11171286 284.90438548 -0.11316689 280.97467243 -0.11389065 277.04495621 C-0.1144228 269.41316808 -0.10980066 261.7813917 -0.10338932 254.1496066 C-0.09619653 245.32385766 -0.09539496 236.4981158 -0.09460449 227.67236328 C-0.08935161 204.36490699 -0.07539053 181.05745332 -0.0625 157.75 C-0.0315625 79.66375 -0.0315625 79.66375 0 0 Z " fill="#22C55E" transform="translate(25,347)"/>
<path d="M0 0 C277.53 0 555.06 0 841 0 C841 267.3 841 534.6 841 810 C563.47 810 285.94 810 0 810 C0 542.7 0 275.4 0 0 Z M31.5390625 26.91796875 C27.04738067 32.99427945 24.87740592 39.01408823 24.8723495 46.59365731 C24.86933353 47.49299606 24.86631756 48.39233481 24.8632102 49.31892624 C24.86497967 50.29980292 24.86674914 51.28067959 24.86857224 52.29127979 C24.8665196 53.3431323 24.86446697 54.39498481 24.86235213 55.47871163 C24.85666773 59.02681975 24.85814116 62.57488922 24.85955811 66.1230011 C24.85697531 68.68311632 24.85396238 71.24323113 24.8505547 73.80334538 C24.84297382 80.11651531 24.8407816 86.42967679 24.84022565 92.7428508 C24.83931211 100.30337416 24.83264492 107.86388969 24.82587883 115.42440968 C24.80981636 133.69724466 24.80391553 151.97007879 24.79913008 170.24291956 C24.79679465 178.88515998 24.79319209 187.52739974 24.7894347 196.16963964 C24.77659977 225.74682447 24.7658799 255.32400893 24.7624321 284.90119648 C24.76221047 286.75796263 24.76198868 288.61472878 24.76176675 290.47149492 C24.76154611 292.33276616 24.76132562 294.1940374 24.7611053 296.05530864 C24.76066274 299.78939521 24.76021563 303.52348179 24.75976562 307.25756836 C24.75965623 308.18340517 24.75954684 309.10924198 24.75943414 310.06313445 C24.75580231 340.09343574 24.7398772 370.12371292 24.71657526 400.15400498 C24.69198979 431.8963975 24.67825988 463.63877623 24.67706418 495.38117856 C24.67689272 498.86433518 24.67667729 502.3474918 24.67642975 505.83064842 C24.67637398 506.68831298 24.67631821 507.54597755 24.67626075 508.42963195 C24.67510927 522.24231905 24.66407918 536.05498144 24.64954269 549.86766019 C24.63518998 563.74544736 24.63193379 577.62320277 24.63998267 591.50099532 C24.64444451 599.74886495 24.6405562 607.99663219 24.62474416 616.24448841 C24.61386934 622.39824215 24.6186176 628.55188979 24.62951604 634.70564141 C24.63148364 637.19888971 24.62834594 639.69214818 24.61967167 642.18538217 C24.608647 645.56749978 24.61601968 648.94909412 24.6280632 652.33119678 C24.62046801 653.30504996 24.61287282 654.27890313 24.60504746 655.282267 C24.67484842 664.32742275 27.00588296 670.63130317 33.234375 677.3046875 C38.39120676 682.2561587 43.49330109 683.12383085 50.44004518 683.1276505 C51.528595 683.13066647 52.61714481 683.13368244 53.73868099 683.1367898 C54.93133126 683.13502033 56.12398153 683.13325086 57.35277271 683.13142776 C59.26484946 683.13450672 59.26484946 683.13450672 61.21555403 683.13764787 C64.76735741 683.14321799 68.31913669 683.14254147 71.87094305 683.14087028 C75.72996421 683.14013986 79.58897854 683.14516051 83.4479968 683.1494453 C91.10789438 683.15703047 98.767785 683.15921862 106.42768596 683.15977435 C115.60008073 683.16068747 124.77246905 683.1673534 133.94486105 683.17412117 C156.11410716 683.19018801 178.28335259 683.19608497 200.45260348 683.20086992 C210.93653743 683.20320491 221.42047083 683.20680742 231.90440435 683.2105653 C267.78066392 683.22340062 303.65692319 683.23412045 339.53318501 683.2375679 C341.78563265 683.23778954 344.0380803 683.23801132 346.29052795 683.23823325 C348.54845892 683.23845389 350.80638989 683.23867438 353.06432086 683.2388947 C357.59423149 683.23933726 362.12414211 683.23978437 366.65405273 683.24023438 C367.77720878 683.24034377 368.90036482 683.24045316 370.0575559 683.24056586 C406.49009409 683.24419789 442.92261239 683.26012355 479.35514297 683.28342474 C517.8597059 683.3080062 556.36425747 683.32173993 594.86882848 683.32293582 C599.09342683 683.32310728 603.31802517 683.32332271 607.54262352 683.32357025 C609.10298416 683.3236539 609.10298416 683.3236539 610.69486724 683.32373925 C627.45326376 683.32489108 644.21163992 683.33592417 660.97002956 683.35045731 C677.80516287 683.36480488 694.64027001 683.36806912 711.47540776 683.36001733 C721.48292428 683.35555306 731.49035645 683.35945351 741.49786194 683.37525584 C748.17862385 683.38498077 754.85932645 683.38385146 761.54008778 683.37381961 C765.34923215 683.36840961 769.15821413 683.36777497 772.96734527 683.38032833 C777.06825739 683.39373081 781.16878774 683.38399554 785.26970387 683.3719368 C786.45533064 683.37953199 787.64095741 683.38712718 788.86251226 683.39495254 C798.5236732 683.33326814 805.10965452 681.5230858 812.3046875 674.8359375 C816.64083796 670.14010636 818.12349132 664.76510057 818.1276505 658.53284252 C818.13066647 657.63626351 818.13368244 656.73968451 818.1367898 655.81593645 C818.13502033 654.83300446 818.13325086 653.85007247 818.13142776 652.83735466 C818.13450672 651.26220545 818.13450672 651.26220545 818.13764787 649.65523505 C818.1433399 646.107049 818.1418579 642.5589015 818.14044189 639.01071167 C818.14302427 636.45288489 818.14603707 633.89505852 818.1494453 631.33723271 C818.15703114 625.02577583 818.15921865 618.7143274 818.15977435 612.40286644 C818.16068742 604.84510286 818.16735327 597.28734713 818.17412117 589.72958692 C818.19018964 571.46120792 818.19608544 553.19282974 818.20086992 534.92444494 C818.20320505 526.28377326 818.20680761 517.64310224 818.2105653 509.00243108 C818.22340163 479.42980792 818.23412069 449.85718513 818.2375679 420.28455925 C818.23778953 418.42776078 818.23801132 416.57096231 818.23823325 414.71416385 C818.23845389 412.85285505 818.23867438 410.99154626 818.2388947 409.13023746 C818.23933726 405.39606976 818.23978437 401.66190207 818.24023438 397.92773438 C818.24034377 397.0018762 818.24045316 396.07601802 818.24056586 395.12210354 C818.24419674 365.09909874 818.26011751 335.07611809 818.28342474 305.05312254 C818.30801613 273.31796995 818.32174042 241.58283116 818.32293582 209.84766877 C818.32310728 206.3644607 818.32332271 202.88125265 818.32357025 199.39804459 C818.3236539 198.11153026 818.3236539 198.11153026 818.32373925 196.79902575 C818.32489031 182.99132782 818.33591701 169.18365465 818.35045731 155.37596508 C818.36481779 141.49914148 818.36806183 127.62234963 818.36001733 113.74552064 C818.35555892 105.50029841 818.35943009 97.25517866 818.37525584 89.00996988 C818.38614536 82.85459182 818.38137142 76.69931964 818.37048396 70.54394366 C818.36851912 68.05264871 818.37164153 65.56134356 818.38032833 63.07006298 C818.39138308 59.68576116 818.38395843 56.30197945 818.3719368 52.91769218 C818.37953199 51.94880719 818.38712718 50.9799222 818.39495254 49.98167706 C818.30732446 38.56690647 815.13205565 30.20823025 807.11328125 22.08984375 C796.81600196 12.56132009 787.29756695 11.84775513 773.75030041 11.86857224 C772.5110183 11.8665196 771.27173619 11.86446697 769.99490008 11.86235213 C766.55177904 11.85766866 763.10871019 11.85745566 759.66558985 11.85912972 C755.92088729 11.85986166 752.17619172 11.85483592 748.43149215 11.8505547 C741.0030029 11.84297846 733.57452083 11.84078184 726.14602812 11.84022565 C717.24889393 11.83931166 708.35176638 11.83264314 699.45463506 11.82587883 C677.95264058 11.80982137 656.45064682 11.80391618 634.94864743 11.79913008 C624.77850323 11.79679424 614.60835958 11.79319163 604.43821582 11.7894347 C569.62931387 11.77660045 534.82041225 11.76588034 500.01150799 11.7624321 C497.82659651 11.76221047 495.64168504 11.76198868 493.45677357 11.76176675 C491.26657591 11.76154611 489.07637824 11.76132562 486.88618058 11.7611053 C482.49223562 11.76066274 478.09829066 11.76021563 473.7043457 11.75976562 C472.61490349 11.75965623 471.52546128 11.75954684 470.40300566 11.75943414 C435.06485265 11.75580219 399.72672014 11.73987628 364.38857499 11.71657526 C327.03214314 11.69198843 289.67572301 11.67825983 252.31928283 11.67706418 C248.21993847 11.67689272 244.12059412 11.67667729 240.02124977 11.67642975 C239.0118665 11.67637398 238.00248323 11.67631821 236.96251259 11.67626075 C220.70859024 11.67510942 204.45468891 11.66408063 188.20077366 11.64954269 C171.86994297 11.63518829 155.53913927 11.63193477 139.20830401 11.63998267 C129.50335953 11.64444363 119.79850207 11.64055965 110.09356899 11.62474416 C103.61201131 11.61500785 97.13051472 11.6161595 90.64895762 11.62618039 C86.95526385 11.6315821 83.26173742 11.6322515 79.56805738 11.61967167 C75.58769948 11.60622855 71.60758972 11.61602544 67.62722301 11.6280632 C66.48271757 11.62046801 65.33821212 11.61287282 64.15902469 11.60504746 C49.99523654 11.69781209 40.62436386 16.06953813 31.5390625 26.91796875 Z " fill="#FEFEFE" transform="translate(0,0)"/>
<path d="M0 0 C131.01 0 262.02 0 397 0 C397 55.11 397 110.22 397 167 C265.99 167 134.98 167 0 167 C0 111.89 0 56.78 0 0 Z " fill="#FACC15" transform="translate(25,180)"/>
<path d="M0 0 C277.53 0 555.06 0 841 0 C841 267.3 841 534.6 841 810 C563.47 810 285.94 810 0 810 C0 542.7 0 275.4 0 0 Z M31.5390625 26.91796875 C27.04738067 32.99427945 24.87740592 39.01408823 24.8723495 46.59365731 C24.86933353 47.49299606 24.86631756 48.39233481 24.8632102 49.31892624 C24.86497967 50.29980292 24.86674914 51.28067959 24.86857224 52.29127979 C24.8665196 53.3431323 24.86446697 54.39498481 24.86235213 55.47871163 C24.85666773 59.02681975 24.85814116 62.57488922 24.85955811 66.1230011 C24.85697531 68.68311632 24.85396238 71.24323113 24.8505547 73.80334538 C24.84297382 80.11651531 24.8407816 86.42967679 24.84022565 92.7428508 C24.83931211 100.30337416 24.83264492 107.86388969 24.82587883 115.42440968 C24.80981636 133.69724466 24.80391553 151.97007879 24.79913008 170.24291956 C24.79679465 178.88515998 24.79319209 187.52739974 24.7894347 196.16963964 C24.77659977 225.74682447 24.7658799 255.32400893 24.7624321 284.90119648 C24.76221047 286.75796263 24.76198868 288.61472878 24.76176675 290.47149492 C24.76154611 292.33276616 24.76132562 294.1940374 24.7611053 296.05530864 C24.76066274 299.78939521 24.76021563 303.52348179 24.75976562 307.25756836 C24.75965623 308.18340517 24.75954684 309.10924198 24.75943414 310.06313445 C24.75580231 340.09343574 24.7398772 370.12371292 24.71657526 400.15400498 C24.69198979 431.8963975 24.67825988 463.63877623 24.67706418 495.38117856 C24.67689272 498.86433518 24.67667729 502.3474918 24.67642975 505.83064842 C24.67637398 506.68831298 24.67631821 507.54597755 24.67626075 508.42963195 C24.67510927 522.24231905 24.66407918 536.05498144 24.64954269 549.86766019 C24.63518998 563.74544736 24.63193379 577.62320277 24.63998267 591.50099532 C24.64444451 599.74886495 24.6405562 607.99663219 24.62474416 616.24448841 C24.61386934 622.39824215 24.6186176 628.55188979 24.62951604 634.70564141 C24.63148364 637.19888971 24.62834594 639.69214818 24.61967167 642.18538217 C24.608647 645.56749978 24.61601968 648.94909412 24.6280632 652.33119678 C24.62046801 653.30504996 24.61287282 654.27890313 24.60504746 655.282267 C24.67484842 664.32742275 27.00588296 670.63130317 33.234375 677.3046875 C38.39120676 682.2561587 43.49330109 683.12383085 50.44004518 683.1276505 C51.528595 683.13066647 52.61714481 683.13368244 53.73868099 683.1367898 C54.93133126 683.13502033 56.12398153 683.13325086 57.35277271 683.13142776 C59.26484946 683.13450672 59.26484946 683.13450672 61.21555403 683.13764787 C64.76735741 683.14321799 68.31913669 683.14254147 71.87094305 683.14087028 C75.72996421 683.14013986 79.58897854 683.14516051 83.4479968 683.1494453 C91.10789438 683.15703047 98.767785 683.15921862 106.42768596 683.15977435 C115.60008073 683.16068747 124.77246905 683.1673534 133.94486105 683.17412117 C156.11410716 683.19018801 178.28335259 683.19608497 200.45260348 683.20086992 C210.93653743 683.20320491 221.42047083 683.20680742 231.90440435 683.2105653 C267.78066392 683.22340062 303.65692319 683.23412045 339.53318501 683.2375679 C341.78563265 683.23778954 344.0380803 683.23801132 346.29052795 683.23823325 C348.54845892 683.23845389 350.80638989 683.23867438 353.06432086 683.2388947 C357.59423149 683.23933726 362.12414211 683.23978437 366.65405273 683.24023438 C367.77720878 683.24034377 368.90036482 683.24045316 370.0575559 683.24056586 C406.49009409 683.24419789 442.92261239 683.26012355 479.35514297 683.28342474 C517.8597059 683.3080062 556.36425747 683.32173993 594.86882848 683.32293582 C599.09342683 683.32310728 603.31802517 683.32332271 607.54262352 683.32357025 C609.10298416 683.3236539 609.10298416 683.3236539 610.69486724 683.32373925 C627.45326376 683.32489108 644.21163992 683.33592417 660.97002956 683.35045731 C677.80516287 683.36480488 694.64027001 683.36806912 711.47540776 683.36001733 C721.48292428 683.35555306 731.49035645 683.35945351 741.49786194 683.37525584 C748.17862385 683.38498077 754.85932645 683.38385146 761.54008778 683.37381961 C765.34923215 683.36840961 769.15821413 683.36777497 772.96734527 683.38032833 C777.06825739 683.39373081 781.16878774 683.38399554 785.26970387 683.3719368 C786.45533064 683.37953199 787.64095741 683.38712718 788.86251226 683.39495254 C798.5236732 683.33326814 805.10965452 681.5230858 812.3046875 674.8359375 C816.64083796 670.14010636 818.12349132 664.76510057 818.1276505 658.53284252 C818.13066647 657.63626351 818.13368244 656.73968451 818.1367898 655.81593645 C818.13502033 654.83300446 818.13325086 653.85007247 818.13142776 652.83735466 C818.13450672 651.26220545 818.13450672 651.26220545 818.13764787 649.65523505 C818.1433399 646.107049 818.1418579 642.5589015 818.14044189 639.01071167 C818.14302427 636.45288489 818.14603707 633.89505852 818.1494453 631.33723271 C818.15703114 625.02577583 818.15921865 618.7143274 818.15977435 612.40286644 C818.16068742 604.84510286 818.16735327 597.28734713 818.17412117 589.72958692 C818.19018964 571.46120792 818.19608544 553.19282974 818.20086992 534.92444494 C818.20320505 526.28377326 818.20680761 517.64310224 818.2105653 509.00243108 C818.22340163 479.42980792 818.23412069 449.85718513 818.2375679 420.28455925 C818.23778953 418.42776078 818.23801132 416.57096231 818.23823325 414.71416385 C818.23845389 412.85285505 818.23867438 410.99154626 818.2388947 409.13023746 C818.23933726 405.39606976 818.23978437 401.66190207 818.24023438 397.92773438 C818.24034377 397.0018762 818.24045316 396.07601802 818.24056586 395.12210354 C818.24419674 365.09909874 818.26011751 335.07611809 818.28342474 305.05312254 C818.30801613 273.31796995 818.32174042 241.58283116 818.32293582 209.84766877 C818.32310728 206.3644607 818.32332271 202.88125265 818.32357025 199.39804459 C818.3236539 198.11153026 818.3236539 198.11153026 818.32373925 196.79902575 C818.32489031 182.99132782 818.33591701 169.18365465 818.35045731 155.37596508 C818.36481779 141.49914148 818.36806183 127.62234963 818.36001733 113.74552064 C818.35555892 105.50029841 818.35943009 97.25517866 818.37525584 89.00996988 C818.38614536 82.85459182 818.38137142 76.69931964 818.37048396 70.54394366 C818.36851912 68.05264871 818.37164153 65.56134356 818.38032833 63.07006298 C818.39138308 59.68576116 818.38395843 56.30197945 818.3719368 52.91769218 C818.37953199 51.94880719 818.38712718 50.9799222 818.39495254 49.98167706 C818.30732446 38.56690647 815.13205565 30.20823025 807.11328125 22.08984375 C796.81600196 12.56132009 787.29756695 11.84775513 773.75030041 11.86857224 C772.5110183 11.8665196 771.27173619 11.86446697 769.99490008 11.86235213 C766.55177904 11.85766866 763.10871019 11.85745566 759.66558985 11.85912972 C755.92088729 11.85986166 752.17619172 11.85483592 748.43149215 11.8505547 C741.0030029 11.84297846 733.57452083 11.84078184 726.14602812 11.84022565 C717.24889393 11.83931166 708.35176638 11.83264314 699.45463506 11.82587883 C677.95264058 11.80982137 656.45064682 11.80391618 634.94864743 11.79913008 C624.77850323 11.79679424 614.60835958 11.79319163 604.43821582 11.7894347 C569.62931387 11.77660045 534.82041225 11.76588034 500.01150799 11.7624321 C497.82659651 11.76221047 495.64168504 11.76198868 493.45677357 11.76176675 C491.26657591 11.76154611 489.07637824 11.76132562 486.88618058 11.7611053 C482.49223562 11.76066274 478.09829066 11.76021563 473.7043457 11.75976562 C472.61490349 11.75965623 471.52546128 11.75954684 470.40300566 11.75943414 C435.06485265 11.75580219 399.72672014 11.73987628 364.38857499 11.71657526 C327.03214314 11.69198843 289.67572301 11.67825983 252.31928283 11.67706418 C248.21993847 11.67689272 244.12059412 11.67667729 240.02124977 11.67642975 C239.0118665 11.67637398 238.00248323 11.67631821 236.96251259 11.67626075 C220.70859024 11.67510942 204.45468891 11.66408063 188.20077366 11.64954269 C171.86994297 11.63518829 155.53913927 11.63193477 139.20830401 11.63998267 C129.50335953 11.64444363 119.79850207 11.64055965 110.09356899 11.62474416 C103.61201131 11.61500785 97.13051472 11.6161595 90.64895762 11.62618039 C86.95526385 11.6315821 83.26173742 11.6322515 79.56805738 11.61967167 C75.58769948 11.60622855 71.60758972 11.61602544 67.62722301 11.6280632 C66.48271757 11.62046801 65.33821212 11.61287282 64.15902469 11.60504746 C49.99523654 11.69781209 40.62436386 16.06953813 31.5390625 26.91796875 Z M25 686 C17.66858127 742.11001631 17.66858127 742.11001631 36 797 C45.186801 805.1293275 55.7793546 806.45022127 67.65007782 806.37752342 C68.89619821 806.38188374 70.1423186 806.38624407 71.42620021 806.39073652 C74.87458173 806.40237611 78.32270994 806.39545153 81.77108715 806.38540266 C85.5266444 806.37777439 89.28216361 806.38757949 93.03771544 806.39513266 C99.61638353 806.40595846 106.19497774 806.40564474 112.77364922 806.39799118 C122.55637561 806.386641 132.33903971 806.39244637 142.12176569 806.4016161 C159.59395795 806.41741383 177.0661173 806.41604394 194.53831269 806.40737936 C209.82847806 806.39983405 225.11863137 806.39786196 240.40879822 806.4014473 C241.42285176 806.40167645 242.43690531 806.40190561 243.48168775 806.40214171 C247.59801458 806.40307571 251.71434141 806.40403091 255.83066822 806.405021 C294.44855116 806.41419894 333.06641314 806.40587612 371.68429285 806.38973031 C405.99738485 806.37549339 440.31044345 806.37676727 474.62353516 806.39111328 C513.17058274 806.40717559 551.7176118 806.41354805 590.26466227 806.40427649 C594.37350877 806.40331433 598.48235527 806.40237581 602.59120178 806.4014473 C603.60291185 806.40121006 604.61462192 806.40097283 605.65698987 806.40072841 C620.93791186 806.39731534 636.21882046 806.40130804 651.4997406 806.40888596 C668.87403306 806.417459 686.24828745 806.41532932 703.62257516 806.39904372 C713.34752645 806.39022896 723.07239531 806.38966834 732.79734447 806.40098225 C739.29213962 806.40770522 745.78686864 806.40353027 752.28165398 806.39046794 C755.98284874 806.38332733 759.68387967 806.3809003 763.38506931 806.39168589 C767.37349004 806.40318998 771.3615094 806.39147935 775.34992218 806.37752342 C776.49677878 806.38454692 777.64363537 806.39157042 778.8252452 806.39880675 C790.88956706 806.31417263 800.05885745 803.31225484 809 795 C832.01213247 766.62661803 818 710.54190011 818 686 C556.31 686 294.62 686 25 686 Z " fill="#EDEDEF" transform="translate(0,0)"/>
<path d="M0 0 C65.34 0 130.68 0 198 0 C198 55.44 198 110.88 198 168 C132.66 168 67.32 168 0 168 C0 112.56 0 57.12 0 0 Z " fill="#FACC15" transform="translate(422,347)"/>
<path d="M0 0 C65.34 0 130.68 0 198 0 C198.061875 24.255 198.12375 48.51 198.1875 73.5 C198.21481201 81.15380859 198.24212402 88.80761719 198.27026367 96.69335938 C198.28381348 106.05175781 198.28381348 106.05175781 198.28633118 110.43518066 C198.28912203 113.49156246 198.30034804 116.54778735 198.31672668 119.60412598 C198.33736841 123.50794438 198.34346162 127.41153602 198.33921683 131.31540394 C198.34010389 132.7448189 198.34601475 134.17424212 198.35764539 135.60361004 C198.44268028 146.56724342 197.49471665 154.06422892 189.8359375 162.3046875 C184.16263268 167.54344132 178.14519431 168.12545436 170.76141357 168.12025452 C169.66597854 168.12153615 169.66597854 168.12153615 168.54841352 168.12284368 C166.10093563 168.12449102 163.65352626 168.11898931 161.20605469 168.11352539 C159.45179242 168.11324333 157.69753003 168.11340162 155.94326782 168.1139679 C151.1791835 168.11425514 146.41512428 168.10837013 141.6510458 168.10139394 C136.67290308 168.09514833 131.6947598 168.09455564 126.71661377 168.09336853 C117.28901093 168.09025879 107.86141966 168.08205019 98.43382192 168.07201904 C85.69485195 168.05875837 72.95587882 168.05335511 60.21690369 168.04751682 C40.14459378 168.03811007 20.07230831 168.01818876 0 168 C0 112.56 0 57.12 0 0 Z " fill="#FACC15" transform="translate(620,515)"/>
<path d="M0 0 C63.36 0 126.72 0 192 0 C192 53.46 192 106.92 192 162 C148.18612369 162.16121214 148.18612369 162.16121214 129.828125 162.1953125 C117.15162688 162.21904841 104.47523509 162.24695442 91.79882812 162.30175781 C82.56672062 162.34165155 73.33469937 162.36743901 64.10250807 162.37635398 C59.21500437 162.38156441 54.32774742 162.3937932 49.44032288 162.42292023 C44.83729544 162.45012935 40.23461572 162.45843388 35.6315155 162.45243073 C33.94489653 162.4535285 32.25826558 162.46144965 30.57171631 162.4768219 C13.36073206 162.62595991 13.36073206 162.62595991 5.9765625 156.25390625 C5.53054687 155.69574219 5.08453125 155.13757813 4.625 154.5625 C4.16351563 154.00691406 3.70203125 153.45132813 3.2265625 152.87890625 C0.43873035 148.60837356 -0.24920728 144.91403364 -0.24050903 139.85600281 C-0.24326403 138.62322192 -0.24601902 137.39044104 -0.2488575 136.12030315 C-0.24176478 134.75687761 -0.234489 133.393453 -0.22705078 132.0300293 C-0.22643784 130.56762356 -0.22670555 129.10521724 -0.2277813 127.64281178 C-0.22823227 123.73136998 -0.216652 119.82005088 -0.20256042 115.908638 C-0.19115911 112.23649209 -0.19063356 108.56437583 -0.18920898 104.89221191 C-0.17871999 94.15729173 -0.15079763 83.42239431 -0.125 72.6875 C-0.08375 48.700625 -0.0425 24.71375 0 0 Z " fill="#22C55E" transform="translate(28,518)"/>
<path d="M0 0 C63.36 0 126.72 0 192 0 C192 53.13 192 106.26 192 161 C128.64 161 65.28 161 0 161 C0 107.87 0 54.74 0 0 Z " fill="#EF4444" transform="translate(425,183)"/>
<path d="M0 0 C1.58513762 -0.00413962 1.58513762 -0.00413962 3.20229822 -0.00836286 C4.35936705 -0.00630754 5.51643587 -0.00425222 6.70856738 -0.00213462 C8.56447841 -0.00476418 8.56447841 -0.00476418 10.45788258 -0.00744686 C13.90468991 -0.01130806 17.35144412 -0.01067292 20.79824926 -0.00816908 C24.54345462 -0.00653857 28.28865427 -0.01067471 32.03385782 -0.01407826 C38.60207353 -0.01923781 45.17028187 -0.0206485 51.7384994 -0.01962215 C61.50572443 -0.01809963 71.27294128 -0.02225363 81.04016472 -0.02749677 C99.49821112 -0.03717811 117.95625475 -0.03998131 136.41430339 -0.04055383 C150.66658829 -0.04101301 164.9188721 -0.04306948 179.17115664 -0.04625446 C183.27066103 -0.04715197 187.37016543 -0.04804179 191.46966982 -0.04892933 C192.99830793 -0.04926091 192.99830793 -0.04926091 194.55782762 -0.04959918 C223.23128882 -0.05575519 251.90474965 -0.05969956 280.57821155 -0.0592559 C281.65972535 -0.05924032 282.74123915 -0.05922474 283.8555261 -0.05920869 C289.33733783 -0.05912558 294.81914956 -0.05902654 300.30096129 -0.05892398 C301.93408092 -0.05889406 301.93408092 -0.05889406 303.60019286 -0.05886354 C305.80190455 -0.0588231 308.00361623 -0.05878131 310.20532791 -0.05873815 C344.46388242 -0.05812533 378.72242704 -0.0656324 412.98097873 -0.07931072 C451.45253194 -0.09466474 489.92407865 -0.10327735 528.39563513 -0.10234749 C532.49639694 -0.10227286 536.59715875 -0.10222415 540.69792056 -0.10219318 C542.2125361 -0.1021757 542.2125361 -0.1021757 543.75774993 -0.10215786 C560.02127236 -0.10212706 576.28478622 -0.10851839 592.5483061 -0.11712544 C608.88832163 -0.12559423 625.22832459 -0.12659796 641.56834111 -0.12001612 C651.28013222 -0.11631527 660.99188518 -0.11816877 670.70367227 -0.12795846 C677.18858985 -0.13394399 683.6734797 -0.13267892 690.15839599 -0.12548796 C693.85483649 -0.12159436 697.551203 -0.1208655 701.24763837 -0.12894531 C705.22926475 -0.13757239 709.21077942 -0.13074031 713.19240832 -0.12238914 C714.34011248 -0.12735732 715.48781664 -0.1323255 716.67029971 -0.13744423 C722.9959543 -0.10927328 728.58160582 0.5059703 734.70217013 2.12649983 C734.70217013 2.45649983 734.70217013 2.78649983 734.70217013 3.12649983 C677.94217013 3.12649983 621.18217013 3.12649983 562.70217013 3.12649983 C562.70217013 56.58649983 562.70217013 110.04649983 562.70217013 165.12649983 C626.06217013 165.12649983 689.42217013 165.12649983 754.70217013 165.12649983 C754.70217013 118.26649983 754.70217013 71.40649983 754.70217013 23.12649983 C758.25228312 26.67661281 757.81741504 31.03432295 757.83317861 35.86899671 C757.82923809 36.9875772 757.82923809 36.9875772 757.82521796 38.12875527 C757.82637181 38.93312525 757.82752565 39.73749522 757.82871446 40.56624004 C757.83136979 43.2724079 757.82686784 45.97851675 757.82242465 48.68468159 C757.82286057 50.64002759 757.82373587 52.59537352 757.82501382 54.55071914 C757.82725463 59.93237424 757.8232431 65.31400951 757.81823575 70.69566208 C757.81392555 76.49590105 757.81537809 82.29613886 757.81613803 88.09637898 C757.8166629 98.14852923 757.81351992 108.200673 757.80790019 118.25282162 C757.79978023 132.78662147 757.79716612 147.32041832 757.7959122 161.85422017 C757.79381143 185.43318169 757.78707307 209.01213983 757.77760959 232.59109944 C757.76842618 255.49865134 757.76134206 278.40620232 757.75710177 301.31375569 C757.75690448 302.37280191 757.75690448 302.37280191 757.75670321 303.45324301 C757.7553847 310.54345307 757.75410888 317.63366313 757.75286435 324.72387321 C757.75032809 339.16762701 757.74750684 353.61138076 757.74451327 368.05513448 C757.74437598 368.71924429 757.74423869 369.3833541 757.74409724 370.06758845 C757.73489558 414.42056062 757.71840996 458.77352965 757.70217013 503.12649983 C692.36217013 503.12649983 627.02217013 503.12649983 559.70217013 503.12649983 C559.70217013 447.68649983 559.70217013 392.24649983 559.70217013 335.12649983 C494.36217013 335.12649983 429.02217013 335.12649983 361.70217013 335.12649983 C361.70217013 280.01649983 361.70217013 224.90649983 361.70217013 168.12649983 C230.69217013 168.12649983 99.68217013 168.12649983 -35.29782987 168.12649983 C-35.29782987 30.12649983 -35.29782987 30.12649983 -33.29782987 23.12649983 C-32.96782987 23.12649983 -32.63782987 23.12649983 -32.29782987 23.12649983 C-32.29782987 69.98649983 -32.29782987 116.84649983 -32.29782987 165.12649983 C31.06217013 165.12649983 94.42217013 165.12649983 159.70217013 165.12649983 C159.70217013 111.66649983 159.70217013 58.20649983 159.70217013 3.12649983 C102.94217013 3.12649983 46.18217013 3.12649983 -12.29782987 3.12649983 C-8.87765838 -0.29367166 -4.64166133 0.00148787 0 0 Z M165.70217013 3.12649983 C165.70217013 56.58649983 165.70217013 110.04649983 165.70217013 165.12649983 C229.39217013 165.12649983 293.08217013 165.12649983 358.70217013 165.12649983 C358.70217013 111.66649983 358.70217013 58.20649983 358.70217013 3.12649983 C295.01217013 3.12649983 231.32217013 3.12649983 165.70217013 3.12649983 Z M364.70217013 3.12649983 C364.70217013 56.58649983 364.70217013 110.04649983 364.70217013 165.12649983 C428.06217013 165.12649983 491.42217013 165.12649983 556.70217013 165.12649983 C556.70217013 111.66649983 556.70217013 58.20649983 556.70217013 3.12649983 C493.34217013 3.12649983 429.98217013 3.12649983 364.70217013 3.12649983 Z M364.70217013 171.12649983 C364.70217013 224.25649983 364.70217013 277.38649983 364.70217013 332.12649983 C428.06217013 332.12649983 491.42217013 332.12649983 556.70217013 332.12649983 C556.70217013 278.99649983 556.70217013 225.86649983 556.70217013 171.12649983 C493.34217013 171.12649983 429.98217013 171.12649983 364.70217013 171.12649983 Z M562.70217013 171.12649983 C562.70217013 224.25649983 562.70217013 277.38649983 562.70217013 332.12649983 C626.06217013 332.12649983 689.42217013 332.12649983 754.70217013 332.12649983 C754.70217013 278.99649983 754.70217013 225.86649983 754.70217013 171.12649983 C691.34217013 171.12649983 627.98217013 171.12649983 562.70217013 171.12649983 Z M562.70217013 338.12649983 C562.70217013 391.58649983 562.70217013 445.04649983 562.70217013 500.12649983 C626.06217013 500.12649983 689.42217013 500.12649983 754.70217013 500.12649983 C754.70217013 446.66649983 754.70217013 393.20649983 754.70217013 338.12649983 C691.34217013 338.12649983 627.98217013 338.12649983 562.70217013 338.12649983 Z " fill="#F26969" transform="translate(60.2978298664093,11.873500168323517)"/>
<path d="M0 0 C131.01 0 262.02 0 397 0 C397 55.44 397 110.88 397 168 C462.34 168 527.68 168 595 168 C595 223.44 595 278.88 595 336 C528.18283847 336.04026156 528.18283847 336.04026156 507.51170349 336.05130005 C506.77447943 336.05169472 506.03725536 336.05208938 505.27769117 336.05249601 C480.46520334 336.06574339 455.65271514 336.07624593 430.84022522 336.08468628 C429.62577619 336.08510045 429.62577619 336.08510045 428.38679283 336.08552299 C410.79207932 336.09150855 393.19736569 336.09704895 375.60265189 336.10213066 C366.97444043 336.10462537 358.346229 336.10721847 349.71801758 336.10986328 C348.43008873 336.11025556 348.43008873 336.11025556 347.11614111 336.11065576 C319.2765248 336.11918127 291.4369166 336.134206 263.59730521 336.15259444 C234.99291975 336.17145375 206.38853878 336.18376952 177.78414721 336.18782998 C173.74569634 336.18840631 169.70724548 336.18905758 165.66879463 336.18975449 C164.47653528 336.18995676 164.47653528 336.18995676 163.26018989 336.19016311 C150.45590396 336.19252825 137.65163189 336.20180897 124.84735161 336.21366407 C111.98052478 336.22542992 99.11371172 336.22993812 86.24687969 336.22700275 C78.59872614 336.22547947 70.95062291 336.22955609 63.30247843 336.24159509 C57.59673108 336.24996438 51.89102573 336.24792991 46.18527729 336.24179779 C43.87291903 336.2409498 41.56055657 336.24351236 39.24820661 336.24976636 C36.11249441 336.25775649 32.97703104 336.25348793 29.8413229 336.24609566 C28.93721337 336.25134968 28.03310383 336.25660371 27.10159704 336.26201695 C18.08378122 336.21376223 12.62852696 334.36045388 5.953125 328.09375 C1.12570848 322.91875949 -0.12576296 317.42570341 -0.12304783 310.57271957 C-0.1250387 309.46365501 -0.12702957 308.35459045 -0.12908077 307.21191788 C-0.12616811 305.99437695 -0.12325544 304.77683601 -0.12025452 303.5223999 C-0.12111053 302.23170593 -0.12196655 300.94101196 -0.12284851 299.61120605 C-0.12509481 296.01882619 -0.12107349 292.42647604 -0.11607273 288.83409995 C-0.11171286 284.90438548 -0.11316689 280.97467243 -0.11389065 277.04495621 C-0.1144228 269.41316808 -0.10980066 261.7813917 -0.10338932 254.1496066 C-0.09619653 245.32385766 -0.09539496 236.4981158 -0.09460449 227.67236328 C-0.08935161 204.36490699 -0.07539053 181.05745332 -0.0625 157.75 C-0.0315625 79.66375 -0.0315625 79.66375 0 0 Z M3 3 C3 56.46 3 109.92 3 165 C66.36 165 129.72 165 195 165 C195 111.54 195 58.08 195 3 C131.64 3 68.28 3 3 3 Z M201 3 C201 56.46 201 109.92 201 165 C264.69 165 328.38 165 394 165 C394 111.54 394 58.08 394 3 C330.31 3 266.62 3 201 3 Z M3 171 C2.9175 194.925 2.835 218.85 2.75 243.5 C2.71358398 251.04939453 2.67716797 258.59878906 2.63964844 266.37695312 C2.62626922 273.15472048 2.62626922 273.15472048 2.6182251 279.93249512 C2.61450422 282.94726377 2.59953772 285.96174959 2.57769775 288.97644043 C2.55017173 292.82728257 2.54205167 296.67771603 2.5477109 300.52864742 C2.5465283 301.93853514 2.53864887 303.34843779 2.52313948 304.7582407 C2.43041485 313.60087784 2.76839252 320.096258 8.74609375 327.0234375 C9.58333984 327.69246094 9.58333984 327.69246094 10.4375 328.375 C10.99308594 328.83648438 11.54867187 329.29796875 12.12109375 329.7734375 C16.78135305 332.81568578 20.76590232 333.24837362 26.28291321 333.24050903 C27.00589055 333.24221788 27.72886789 333.24392673 28.47375363 333.24568737 C30.890563 333.24897539 33.30709326 333.23799003 35.72387695 333.22705078 C37.45858249 333.22648652 39.19328851 333.22680352 40.92799377 333.22793579 C45.63420103 333.22850972 50.34030638 333.21674893 55.04648995 333.20278788 C59.96589914 333.19028718 64.88531066 333.18911054 69.80473328 333.18673706 C79.1189887 333.18052035 88.43319718 333.16410694 97.74743193 333.14403808 C110.33472442 333.11750554 122.92202975 333.10670798 135.50934315 333.09503365 C155.33959726 333.0762265 175.16975232 333.03638207 195 333 C195 279.54 195 226.08 195 171 C131.64 171 68.28 171 3 171 Z M201 171 C201 224.46 201 277.92 201 333 C264.69 333 328.38 333 394 333 C394 279.54 394 226.08 394 171 C330.31 171 266.62 171 201 171 Z M400 171 C400 224.46 400 277.92 400 333 C463.36 333 526.72 333 592 333 C592 279.54 592 226.08 592 171 C528.64 171 465.28 171 400 171 Z " fill="#4ED17E" transform="translate(25,347)"/>
<path d="M0 0 C131.01 0 262.02 0 397 0 C397 55.11 397 110.22 397 167 C265.99 167 134.98 167 0 167 C0 111.89 0 56.78 0 0 Z M3 3 C3 56.13 3 109.26 3 164 C66.36 164 129.72 164 195 164 C195 110.87 195 57.74 195 3 C131.64 3 68.28 3 3 3 Z M201 3 C201 56.13 201 109.26 201 164 C264.69 164 328.38 164 394 164 C394 110.87 394 57.74 394 3 C330.31 3 266.62 3 201 3 Z " fill="#FBD644" transform="translate(25,180)"/>
<path d="M0 0 C3.98649213 0.00868044 7.97298932 0.01135481 11.95948877 0.01482157 C18.93248775 0.02169798 25.90547292 0.03233706 32.87846276 0.04549692 C43.2469037 0.06504757 53.61534665 0.07869228 63.98379823 0.0911587 C81.42857147 0.11229898 98.87333463 0.13818152 116.31809708 0.16679285 C133.58366202 0.19509469 150.84922805 0.22127278 168.11480042 0.24463175 C169.72675521 0.24681438 169.72675521 0.24681438 171.37127474 0.2490411 C176.82909726 0.25642014 182.28691983 0.26376139 187.74474241 0.27108811 C226.37453115 0.32301361 265.00431162 0.37967478 303.63408944 0.43913363 C341.15589612 0.49687622 378.67770498 0.55246585 416.19951912 0.60514925 C417.35667057 0.60677483 418.51382201 0.60840042 419.70603865 0.61007526 C431.3269234 0.62639806 442.94780821 0.64267719 454.56869306 0.65892432 C478.24051154 0.69202082 501.9123296 0.7254088 525.58414742 0.7589731 C527.21663563 0.76128727 527.21663563 0.76128727 528.8821034 0.76364819 C601.52429279 0.86665707 674.16647222 0.97645994 746.80864998 1.08732699 C746.80864998 2.07732699 746.80864998 3.06732699 746.80864998 4.08732699 C485.11864998 4.08732699 223.42864998 4.08732699 -46.19135002 4.08732699 C-46.19135002 3.09732699 -46.19135002 2.10732699 -46.19135002 1.08732699 C-30.81164078 -0.18406018 -15.41845587 -0.03802272 0 0 Z " fill="#E1E8EF" transform="translate(71.19135001767427,681.9126730142161)"/>
<path d="M0 0 C65.34 0 130.68 0 198 0 C198 55.44 198 110.88 198 168 C132.66 168 67.32 168 0 168 C0 112.56 0 57.12 0 0 Z M3 3 C3 56.46 3 109.92 3 165 C66.36 165 129.72 165 195 165 C195 111.54 195 58.08 195 3 C131.64 3 68.28 3 3 3 Z " fill="#FBD644" transform="translate(422,347)"/>
<path d="M0 0 C65.34 0 130.68 0 198 0 C198.061875 24.255 198.12375 48.51 198.1875 73.5 C198.21481201 81.15380859 198.24212402 88.80761719 198.27026367 96.69335938 C198.28381348 106.05175781 198.28381348 106.05175781 198.28633118 110.43518066 C198.28912203 113.49156246 198.30034804 116.54778735 198.31672668 119.60412598 C198.33736841 123.50794438 198.34346162 127.41153602 198.33921683 131.31540394 C198.34010389 132.7448189 198.34601475 134.17424212 198.35764539 135.60361004 C198.44268028 146.56724342 197.49471665 154.06422892 189.8359375 162.3046875 C184.16263268 167.54344132 178.14519431 168.12545436 170.76141357 168.12025452 C169.66597854 168.12153615 169.66597854 168.12153615 168.54841352 168.12284368 C166.10093563 168.12449102 163.65352626 168.11898931 161.20605469 168.11352539 C159.45179242 168.11324333 157.69753003 168.11340162 155.94326782 168.1139679 C151.1791835 168.11425514 146.41512428 168.10837013 141.6510458 168.10139394 C136.67290308 168.09514833 131.6947598 168.09455564 126.71661377 168.09336853 C117.28901093 168.09025879 107.86141966 168.08205019 98.43382192 168.07201904 C85.69485195 168.05875837 72.95587882 168.05335511 60.21690369 168.04751682 C40.14459378 168.03811007 20.07230831 168.01818876 0 168 C0 112.56 0 57.12 0 0 Z M3 3 C3 56.46 3 109.92 3 165 C34.08591721 165.11653537 34.08591721 165.11653537 65.171875 165.1953125 C77.84837312 165.21904841 90.52476491 165.24695442 103.20117188 165.30175781 C112.43327938 165.34165155 121.66530063 165.36743901 130.89749193 165.37635398 C135.78499563 165.38156441 140.67225258 165.3937932 145.55967712 165.42292023 C150.16270456 165.45012935 154.76538428 165.45843388 159.3684845 165.45243073 C161.05510347 165.4535285 162.74173442 165.46144965 164.42828369 165.4768219 C177.67031953 165.65252721 177.67031953 165.65252721 189.0234375 159.25390625 C189.69246094 158.41666016 189.69246094 158.41666016 190.375 157.5625 C190.83648438 157.00691406 191.29796875 156.45132813 191.7734375 155.87890625 C194.56126965 151.60837356 195.24920728 147.91403364 195.24050903 142.85600281 C195.24326403 141.62322192 195.24601902 140.39044104 195.2488575 139.12030315 C195.24176478 137.75687761 195.234489 136.393453 195.22705078 135.0300293 C195.22643784 133.56762356 195.22670555 132.10521724 195.2277813 130.64281178 C195.22823227 126.73136998 195.216652 122.82005088 195.20256042 118.908638 C195.19115911 115.23649209 195.19063356 111.56437583 195.18920898 107.89221191 C195.17871999 97.15729173 195.15079763 86.42239431 195.125 75.6875 C195.08375 51.700625 195.0425 27.71375 195 3 C131.64 3 68.28 3 3 3 Z " fill="#FBD644" transform="translate(620,515)"/>
<path d="M0 0 C3.45696293 2.15099915 5.72402513 4.64593178 8 8 C8.40992188 7.50628906 8.81984375 7.01257813 9.2421875 6.50390625 C9.78101563 5.86324219 10.31984375 5.22257813 10.875 4.5625 C11.40867187 3.92441406 11.94234375 3.28632812 12.4921875 2.62890625 C14.92493814 0.00077927 16.05523552 -0.00460296 19.75 -0.3125 C24.14635228 -0.25654643 26.63218282 1.11329956 30 4 C32.59183357 8.22831551 32.52782121 12.17420605 32 17 C30.67859682 20.96420954 29.70331341 22.52046813 26.25 24.875 C22.45156267 26.18984369 19.99121673 26.57017382 16 26 C13.49828854 24.56495233 12.03580585 23.13511345 10 21 C10 20.01 10 19.02 10 18 C6.18447383 19.49895671 4.46254954 21.7986856 2 25 C-1.20613847 26.60306924 -4.52139997 26.48740461 -8 26 C-11.5741038 23.82445856 -13.43674813 21.83645219 -15 18 C-15.62941829 13.61394833 -16.04352395 9.00170394 -13.94921875 4.984375 C-9.9302414 0.09995414 -6.16059822 -0.86485321 0 0 Z " fill="#575F73" transform="translate(615,736)"/>
<path d="M0 0 C4.78116022 4.4475909 7.74811479 8.02775457 8.3125 14.6875 C8.24224876 19.4558028 6.68973249 23.09945546 4 27 C0.77279836 29.99668723 -1.50387217 31.90450248 -5.9375 32.1875 C-9 32 -9 32 -12 30 C-12.515625 30.350625 -13.03125 30.70125 -13.5625 31.0625 C-17.05826706 32.40702579 -19.41014435 31.91378144 -23 31 C-25.80474265 28.75620588 -26.3520572 26.16642566 -27 22.75 C-27.38137311 18.12775792 -26.14528799 15.37339089 -23.453125 11.66796875 C-21.43550533 9.35204509 -19.91446947 8.04088195 -17 7 C-10.67857143 7.32142857 -10.67857143 7.32142857 -8 10 C-7.67 9.34 -7.34 8.68 -7 8 C-5.68 8 -4.36 8 -3 8 C-3.54863863 14.7857936 -4.54267938 21.35009036 -6 28 C-2.44784523 26.57913809 -0.3718807 25.52063298 1.875 22.375 C3.29976017 18.10071948 3.86052078 14.45399183 3 10 C0.94556196 6.16015748 -1.94776796 3.57388977 -6 2 C-11.67833191 1.36165158 -17.8678442 0.9147448 -23.0625 3.625 C-27.3346211 7.07905536 -29.92721389 10.60570759 -31 16 C-31.57626529 21.99537545 -31.03749214 26.65820348 -28 32 C-23.09238912 36.66223033 -19.32254229 37.17124579 -12.6875 37.25 C-10.74423828 37.28867187 -10.74423828 37.28867187 -8.76171875 37.328125 C-4.15735047 36.92649786 -0.62618601 35.75628089 2.5625 32.3125 C4 31 4 31 6.6875 30.8125 C7.8321875 30.9053125 7.8321875 30.9053125 9 31 C6.62883225 36.18692945 2.88781194 38.43784051 -2 41 C-9.24357776 43.41452592 -17.73072013 43.09010846 -24.625 39.8125 C-28.24401829 37.71821565 -30.7390525 35.57983354 -33 32 C-33.66 31.01 -34.32 30.02 -35 29 C-35.87033002 20.84638187 -36.24598234 12.78825985 -31.48828125 5.765625 C-23.76277398 -3.39954373 -10.61050948 -6.66445224 0 0 Z " fill="#596073" transform="translate(374,730)"/>
<path d="M0 0 C3.14643783 2.44722942 5.03581171 4.34097705 5.6484375 8.37109375 C5.56756528 18.08923831 5.56756528 18.08923831 2.25 21.75 C-1.68461624 24.91955197 -4.77077887 25.28348798 -9.75 24.75 C-13.09684149 23.38083757 -14.47482511 22.13904036 -16.5625 19.1875 C-18.14389079 14.60978983 -18.47829988 10.54397394 -17.75 5.75 C-13.76460377 -1.08210783 -7.43076167 -3.37761894 0 0 Z " fill="#575E70" transform="translate(197.75,737.25)"/>
<path d="M0 0 C4.05918414 2.10476214 6.30491682 3.7739022 8 8 C8.77733802 13.55241442 8.3222998 18.34878029 5 23 C0.69142571 25.93766429 -2.83767005 26.73747571 -8 26 C-11.47123247 23.96862853 -13.70220109 21.89339674 -15 18 C-15.99736112 8.9240138 -15.99736112 8.9240138 -13.953125 4.98046875 C-9.90706235 0.08949301 -6.17286883 -0.83758257 0 0 Z " fill="#575F73" transform="translate(326,736)"/>
<path d="M0 0 C3.46840808 2.15812058 5.69555618 4.65855646 8 8 C8.33 8.33 8.66 8.66 9 9 C9.44166137 12.05377289 9.46851552 14.94944337 9 18 C6.75 20.875 6.75 20.875 4 23 C3.401875 23.598125 2.80375 24.19625 2.1875 24.8125 C-1.13699561 26.61722619 -4.35751378 26.65897862 -8 26 C-11.5741038 23.82445856 -13.43674813 21.83645219 -15 18 C-15.62941829 13.61394833 -16.04352395 9.00170394 -13.94921875 4.984375 C-9.9302414 0.09995414 -6.16059822 -0.86485321 0 0 Z " fill="#F8FAF9" transform="translate(615,736)"/>
<path d="M0 0 C3.94674752 3.67139304 7.82728891 7.38688402 8.09765625 13.04296875 C8.06510417 15.02864583 8.03255208 17.01432292 8 19 C6.35 19.66 4.7 20.32 3 21 C3.08701172 19.91332031 3.08701172 19.91332031 3.17578125 18.8046875 C3.61212493 12.17250742 3.61212493 12.17250742 0.75 6.4375 C-4.60704624 1.68920902 -8.75148531 1.5611253 -15.796875 1.6875 C-20.37177637 2.13383184 -22.42384831 3.10864331 -26 6 C-30.7850998 12.04433658 -31.69997645 17.46570804 -31 25 C-29.37863382 30.20543878 -27.58231582 33.02149472 -23 36 C-19.42687005 37.19104332 -16.45446678 37.20528823 -12.6875 37.25 C-10.74423828 37.28867187 -10.74423828 37.28867187 -8.76171875 37.328125 C-4.15735047 36.92649786 -0.62618601 35.75628089 2.5625 32.3125 C4 31 4 31 6.6875 30.8125 C7.8321875 30.9053125 7.8321875 30.9053125 9 31 C6.62883225 36.18692945 2.88781194 38.43784051 -2 41 C-9.24357776 43.41452592 -17.73072013 43.09010846 -24.625 39.8125 C-28.24401829 37.71821565 -30.7390525 35.57983354 -33 32 C-33.66 31.01 -34.32 30.02 -35 29 C-35.87033002 20.84638187 -36.24598234 12.78825985 -31.48828125 5.765625 C-23.76277398 -3.39954373 -10.61050948 -6.66445224 0 0 Z " fill="#5B6275" transform="translate(374,730)"/>
<path d="M0 0 C1.32 0 2.64 0 4 0 C4 0.99 4 1.98 4 3 C4.70125 2.505 5.4025 2.01 6.125 1.5 C9.46265743 -0.24138649 11.28269045 -0.38721974 15 0 C15.886875 0.37125 16.77375 0.7425 17.6875 1.125 C18.450625 1.41375 19.21375 1.7025 20 2 C20.99 1.34 21.98 0.68 23 0 C26.64049736 -0.39714517 29.01870268 -0.58704158 32.20703125 1.3203125 C35.10939404 5.6580486 34.41776118 10.16554591 34.25 15.25 C34.23195313 16.28125 34.21390625 17.3125 34.1953125 18.375 C34.14822712 20.91761064 34.0824805 23.45833162 34 26 C32.68 26 31.36 26 30 26 C29.97494385 25.39937744 29.9498877 24.79875488 29.92407227 24.17993164 C29.8084472 21.47388563 29.68557064 18.76821717 29.5625 16.0625 C29.52318359 15.11697266 29.48386719 14.17144531 29.44335938 13.19726562 C29.40146484 12.29814453 29.35957031 11.39902344 29.31640625 10.47265625 C29.27974854 9.64000244 29.24309082 8.80734863 29.20532227 7.94946289 C29.20632897 5.99661142 29.20632897 5.99661142 28 5 C25 4.83333333 25 4.83333333 22 5 C20.41596476 6.58403524 20.78025065 8.2771638 20.68359375 10.47265625 C20.64169922 11.37177734 20.59980469 12.27089844 20.55664062 13.19726562 C20.51732422 14.14279297 20.47800781 15.08832031 20.4375 16.0625 C20.39431641 17.01189453 20.35113281 17.96128906 20.30664062 18.93945312 C20.20020724 21.29281353 20.09818992 23.64628354 20 26 C18.35 26 16.7 26 15 26 C14.67 19.07 14.34 12.14 14 5 C11.36 5 8.72 5 6 5 C5.67 11.93 5.34 18.86 5 26 C3.35 26 1.7 26 0 26 C0 17.42 0 8.84 0 0 Z " fill="#5F697A" transform="translate(470,736)"/>
<path d="M0 0 C1.32 0 2.64 0 4 0 C4.33 0.66 4.66 1.32 5 2 C5.99 1.34 6.98 0.68 8 0 C12.66510697 -0.50707684 15.18706566 0.30851694 19 3 C19.53625 2.505 20.0725 2.01 20.625 1.5 C23.74008151 -0.4674199 25.37170989 -0.5923739 29 0 C31.671875 1.85546875 31.671875 1.85546875 34 5 C34.6102685 8.62442215 34.47236723 12.15031061 34.3125 15.8125 C34.28994141 16.79154297 34.26738281 17.77058594 34.24414062 18.77929688 C34.18539727 21.18777455 34.10332129 23.59309078 34 26 C32.35 26 30.7 26 29 26 C28.67 19.07 28.34 12.14 28 5 C26.02 5 24.04 5 22 5 C19.6031335 7.3968665 19.71718867 8.07028314 19.5859375 11.3515625 C19.54726563 12.20234375 19.50859375 13.053125 19.46875 13.9296875 C19.42234375 15.26386719 19.42234375 15.26386719 19.375 16.625 C19.33632813 17.5221875 19.29765625 18.419375 19.2578125 19.34375 C19.16340643 21.5622927 19.07783252 23.78082403 19 26 C17.68 26 16.36 26 15 26 C14.97494385 25.39937744 14.9498877 24.79875488 14.92407227 24.17993164 C14.8084472 21.47388563 14.68557064 18.76821717 14.5625 16.0625 C14.52318359 15.11697266 14.48386719 14.17144531 14.44335938 13.19726562 C14.40146484 12.29814453 14.35957031 11.39902344 14.31640625 10.47265625 C14.27974854 9.64000244 14.24309082 8.80734863 14.20532227 7.94946289 C14.20632897 5.99661142 14.20632897 5.99661142 13 5 C10.04195427 4.66659529 10.04195427 4.66659529 7 5 C4.9859044 8.0211434 4.73163404 8.80660017 4.5859375 12.23046875 C4.54726563 13.03291016 4.50859375 13.83535156 4.46875 14.66210938 C4.4378125 15.49548828 4.406875 16.32886719 4.375 17.1875 C4.33632813 18.03248047 4.29765625 18.87746094 4.2578125 19.74804688 C4.16363721 21.83167524 4.08073325 23.91580753 4 26 C2.68 26 1.36 26 0 26 C0 17.42 0 8.84 0 0 Z " fill="#56586F" transform="translate(652,736)"/>
<path d="M0 0 C2.41869578 1.1589584 4.12322096 2.12322096 6 4 C6.15714654 5.63256758 6.25085414 7.27135338 6.31640625 8.91015625 C6.35830078 9.89951172 6.40019531 10.88886719 6.44335938 11.90820312 C6.48267578 12.94912109 6.52199219 13.99003906 6.5625 15.0625 C6.60568359 16.10728516 6.64886719 17.15207031 6.69335938 18.22851562 C6.79981225 20.81886884 6.9018276 23.40932186 7 26 C5.35 26 3.7 26 2 26 C1.67 25.34 1.34 24.68 1 24 C0.319375 24.33 -0.36125 24.66 -1.0625 25 C-4.6768802 26.2304273 -7.2027047 26.47466191 -11 26 C-14 23.875 -14 23.875 -16 21 C-16.0625 17.875 -16.0625 17.875 -15 15 C-11.96712868 12.14757411 -9.31468759 11.44155879 -5.25 10.8125 C-4.26515625 10.65394531 -3.2803125 10.49539063 -2.265625 10.33203125 C-1.51796875 10.22246094 -0.7703125 10.11289062 0 10 C0 8.35 0 6.7 0 5 C-1.45742463 4.91903197 -2.91612807 4.86082226 -4.375 4.8125 C-5.59316406 4.76029297 -5.59316406 4.76029297 -6.8359375 4.70703125 C-7.55007813 4.80371094 -8.26421875 4.90039062 -9 5 C-9.99 6.485 -9.99 6.485 -11 8 C-12.32 8 -13.64 8 -15 8 C-14.69025617 5.10905762 -13.95829554 3.95308249 -12 1.75 C-7.92894527 -0.62478193 -4.61221384 -0.71856955 0 0 Z " fill="#5A6173" transform="translate(426,736)"/>
<path d="M0 0 C2.37142035 1.84443805 3.8452124 3.08829718 5.25 5.75 C5.25 8.06 5.25 10.37 5.25 12.75 C-0.69 12.75 -6.63 12.75 -12.75 12.75 C-11.76 15.06 -10.77 17.37 -9.75 19.75 C-6.78 19.75 -3.81 19.75 -0.75 19.75 C-0.42 18.43 -0.09 17.11 0.25 15.75 C1.9 15.75 3.55 15.75 5.25 15.75 C3.89995627 20.16832494 2.25638894 22.39842388 -1.75 24.75 C-6.6257376 25.36914128 -8.72784524 25.26107738 -13.125 23.0625 C-16.53896043 20.05496343 -17.4692574 18.1187657 -18 13.640625 C-18.29302296 8.18307239 -17.47310157 4.99019901 -13.75 0.75 C-9.64041807 -2.36761388 -4.5513482 -2.06879464 0 0 Z " fill="#5A6173" transform="translate(526.75,737.25)"/>
<path d="M0 0 C1.78515625 1.10546875 1.78515625 1.10546875 2.78515625 3.10546875 C2.93738598 4.77112624 3.0343284 6.44203371 3.1015625 8.11328125 C3.14345703 9.09941406 3.18535156 10.08554687 3.22851562 11.1015625 C3.26783203 12.13410156 3.30714844 13.16664063 3.34765625 14.23046875 C3.39083984 15.27074219 3.43402344 16.31101562 3.47851562 17.3828125 C3.58478505 19.95689403 3.68682208 22.53107383 3.78515625 25.10546875 C2.46515625 25.10546875 1.14515625 25.10546875 -0.21484375 25.10546875 C-0.21484375 24.11546875 -0.21484375 23.12546875 -0.21484375 22.10546875 C-1.03984375 22.60046875 -1.86484375 23.09546875 -2.71484375 23.60546875 C-7.1164311 25.49186333 -9.46241086 25.64203375 -14.21484375 25.10546875 C-16.71484375 23.48046875 -16.71484375 23.48046875 -18.21484375 21.10546875 C-18.77734375 18.10546875 -18.77734375 18.10546875 -18.21484375 15.10546875 C-14.53116792 10.36931411 -9.26374322 10.18589377 -3.6640625 9.40234375 C-2.45169922 9.25539063 -2.45169922 9.25539063 -1.21484375 9.10546875 C-1.87484375 7.45546875 -2.53484375 5.80546875 -3.21484375 4.10546875 C-4.49359375 4.04359375 -5.77234375 3.98171875 -7.08984375 3.91796875 C-8.16878906 3.86576172 -8.16878906 3.86576172 -9.26953125 3.8125 C-9.91148437 3.90917969 -10.5534375 4.00585938 -11.21484375 4.10546875 C-12.20484375 5.59046875 -12.20484375 5.59046875 -13.21484375 7.10546875 C-14.53484375 7.10546875 -15.85484375 7.10546875 -17.21484375 7.10546875 C-16.95437415 3.89301032 -16.63994003 2.49071225 -14.21484375 0.29296875 C-9.57759296 -1.54260969 -4.68656211 -1.89280904 0 0 Z " fill="#565C6E" transform="translate(578.21484375,736.89453125)"/>
<path d="M0 0 C1.78515625 1.10546875 1.78515625 1.10546875 2.78515625 3.10546875 C2.93738598 4.77112624 3.0343284 6.44203371 3.1015625 8.11328125 C3.14345703 9.09941406 3.18535156 10.08554687 3.22851562 11.1015625 C3.26783203 12.13410156 3.30714844 13.16664063 3.34765625 14.23046875 C3.39083984 15.27074219 3.43402344 16.31101562 3.47851562 17.3828125 C3.58478505 19.95689403 3.68682208 22.53107383 3.78515625 25.10546875 C2.46515625 25.10546875 1.14515625 25.10546875 -0.21484375 25.10546875 C-0.21484375 24.11546875 -0.21484375 23.12546875 -0.21484375 22.10546875 C-1.03984375 22.60046875 -1.86484375 23.09546875 -2.71484375 23.60546875 C-7.1164311 25.49186333 -9.46241086 25.64203375 -14.21484375 25.10546875 C-16.71484375 23.48046875 -16.71484375 23.48046875 -18.21484375 21.10546875 C-18.77734375 18.10546875 -18.77734375 18.10546875 -18.21484375 15.10546875 C-14.53116792 10.36931411 -9.26374322 10.18589377 -3.6640625 9.40234375 C-2.45169922 9.25539063 -2.45169922 9.25539063 -1.21484375 9.10546875 C-1.87484375 7.45546875 -2.53484375 5.80546875 -3.21484375 4.10546875 C-4.49359375 4.04359375 -5.77234375 3.98171875 -7.08984375 3.91796875 C-8.16878906 3.86576172 -8.16878906 3.86576172 -9.26953125 3.8125 C-9.91148437 3.90917969 -10.5534375 4.00585938 -11.21484375 4.10546875 C-12.20484375 5.59046875 -12.20484375 5.59046875 -13.21484375 7.10546875 C-14.53484375 7.10546875 -15.85484375 7.10546875 -17.21484375 7.10546875 C-16.95437415 3.89301032 -16.63994003 2.49071225 -14.21484375 0.29296875 C-9.57759296 -1.54260969 -4.68656211 -1.89280904 0 0 Z " fill="#565C6E" transform="translate(265.21484375,736.89453125)"/>
<path d="M0 0 C1.32 0 2.64 0 4 0 C4.33 0.66 4.66 1.32 5 2 C5.99 1.34 6.98 0.68 8 0 C12.18380896 -0.30427702 15.47170685 -0.44266449 19 2 C20.25248502 4.50497004 20.11374406 6.20853274 20.09765625 9.0078125 C20.09443359 9.99394531 20.09121094 10.98007812 20.08789062 11.99609375 C20.07951172 13.02863281 20.07113281 14.06117188 20.0625 15.125 C20.05798828 16.16527344 20.05347656 17.20554687 20.04882812 18.27734375 C20.03701952 20.85161962 20.02055075 23.42578146 20 26 C18.68 26 17.36 26 16 26 C15.97494385 25.39937744 15.9498877 24.79875488 15.92407227 24.17993164 C15.8084472 21.47388563 15.68557064 18.76821717 15.5625 16.0625 C15.52318359 15.11697266 15.48386719 14.17144531 15.44335938 13.19726562 C15.40146484 12.29814453 15.35957031 11.39902344 15.31640625 10.47265625 C15.27974854 9.64000244 15.24309082 8.80734863 15.20532227 7.94946289 C15.20632897 5.99661142 15.20632897 5.99661142 14 5 C9.90333316 4.55027084 9.90333316 4.55027084 6.33666992 6.2512207 C4.70661104 8.38384386 4.58267857 9.56846436 4.48828125 12.23046875 C4.45283203 13.03291016 4.41738281 13.83535156 4.38085938 14.66210938 C4.35830078 15.49548828 4.33574219 16.32886719 4.3125 17.1875 C4.27833984 18.03248047 4.24417969 18.87746094 4.20898438 19.74804688 C4.12658529 21.83156649 4.06161355 23.91576216 4 26 C2.68 26 1.36 26 0 26 C0 17.42 0 8.84 0 0 Z " fill="#5E5D6B" transform="translate(208,736)"/>
<path d="M0 0 C2.77765279 2.45087011 2.88385033 4.25775498 3.125 7.875 C1.805 7.875 0.485 7.875 -0.875 7.875 C-1.535 6.555 -2.195 5.235 -2.875 3.875 C-6.29156024 3.70822718 -6.29156024 3.70822718 -9.875 3.875 C-12.12094496 5.70207063 -12.12094496 5.70207063 -12.140625 8.37109375 C-12.13546875 9.34175781 -12.1303125 10.31242188 -12.125 11.3125 C-12.13015625 12.28058594 -12.1353125 13.24867188 -12.140625 14.24609375 C-12.05886997 17.10646113 -12.05886997 17.10646113 -9.875 19.875 C-6.41750051 20.54176878 -6.41750051 20.54176878 -2.875 19.875 C-1.15788757 17.43003957 -1.15788757 17.43003957 0.125 14.875 C1.445 14.875 2.765 14.875 4.125 14.875 C3.90966133 18.64342665 3.12763823 19.87217333 0.5 22.6875 C-2.01708597 24.59036882 -3.09672192 24.91063388 -6.375 25.4375 C-10.54375405 24.76752167 -12.68228042 23.62222382 -15.875 20.875 C-18.50956197 16.6836514 -18.5690955 11.68288103 -17.875 6.875 C-16.25354397 3.68999709 -14.90171736 1.65388904 -12.0625 -0.5 C-7.7623136 -1.72862469 -4.15886816 -1.62738319 0 0 Z " fill="#5A6275" transform="translate(173.875,737.125)"/>
<path d="M0 0 C2.875 1.125 2.875 1.125 5 3 C5.8125 6.1875 5.8125 6.1875 6 9 C4.68 9 3.36 9 2 9 C1.34 7.68 0.68 6.36 0 5 C-3.41642759 4.74984127 -3.41642759 4.74984127 -7 5 C-9.15942819 8.23914229 -9.27232978 9.24859733 -9.25 13 C-9.25515625 13.86625 -9.2603125 14.7325 -9.265625 15.625 C-9.15414552 18.265795 -9.15414552 18.265795 -7 21 C-3.54250051 21.66676878 -3.54250051 21.66676878 0 21 C1.71711243 18.55503957 1.71711243 18.55503957 3 16 C4.32 16 5.64 16 7 16 C6.52048204 20.31566167 5.29764982 22.2019941 2 25 C-1.06429776 26.53214888 -3.6165642 26.22938548 -7 26 C-10.67932168 24.5784439 -11.80560239 23.31751609 -13.875 19.9375 C-15.58676845 15.30391987 -15.3316456 10.7125901 -14 6 C-9.69502847 0.59118962 -6.81921849 -0.4623199 0 0 Z " fill="#5A6173" transform="translate(401,736)"/>
<path d="M0 0 C3.38186376 1.9427728 4.70264591 2.99357079 5.8125 6.75 C5.874375 7.4925 5.93625 8.235 6 9 C4.68 9 3.36 9 2 9 C1.319375 8.01 1.319375 8.01 0.625 7 C-0.89599894 4.67719799 -0.89599894 4.67719799 -4 4.5 C-6.99893022 4.74913573 -6.99893022 4.74913573 -8.875 6.5 C-10.47916751 10.06481668 -10.55158682 13.15465191 -10 17 C-9.20426487 19.61760705 -9.20426487 19.61760705 -7 21 C-4.24499627 21.32603594 -1.7929024 21.18314114 1 21 C1.33 19.35 1.66 17.7 2 16 C3.32 16 4.64 16 6 16 C5.74919159 19.67852334 5.38558753 21.55599012 2.9375 24.375 C-0.85432786 26.4726069 -3.75653891 26.85900022 -8 26 C-11.5741038 23.82445856 -13.43674813 21.83645219 -15 18 C-15.62941829 13.61394833 -16.04352395 9.00170394 -13.94921875 4.984375 C-9.92394633 0.09230351 -6.1652951 -0.85038553 0 0 Z " fill="#5B6173" transform="translate(615,736)"/>
<path d="M0 0 C3.38186376 1.9427728 4.70264591 2.99357079 5.8125 6.75 C5.874375 7.4925 5.93625 8.235 6 9 C4.68 9 3.36 9 2 9 C1.319375 8.01 1.319375 8.01 0.625 7 C-0.89599894 4.67719799 -0.89599894 4.67719799 -4 4.5 C-6.99893022 4.74913573 -6.99893022 4.74913573 -8.875 6.5 C-10.47916751 10.06481668 -10.55158682 13.15465191 -10 17 C-9.20426487 19.61760705 -9.20426487 19.61760705 -7 21 C-4.24499627 21.32603594 -1.7929024 21.18314114 1 21 C1.33 19.35 1.66 17.7 2 16 C3.32 16 4.64 16 6 16 C5.74919159 19.67852334 5.38558753 21.55599012 2.9375 24.375 C-0.85432786 26.4726069 -3.75653891 26.85900022 -8 26 C-11.5741038 23.82445856 -13.43674813 21.83645219 -15 18 C-15.62941829 13.61394833 -16.04352395 9.00170394 -13.94921875 4.984375 C-9.92394633 0.09230351 -6.1652951 -0.85038553 0 0 Z " fill="#5B6173" transform="translate(551,736)"/>
<path d="M0 0 C3.5386994 1.65139305 4.81070153 2.71605229 7 6 C7 6.99 7 7.98 7 9 C5.68 9 4.36 9 3 9 C2.319375 8.01 2.319375 8.01 1.625 7 C0.10636325 4.66981663 0.10636325 4.66981663 -3 4.5625 C-6.32659267 5.0476281 -7.02309905 5.39514228 -9 8 C-9.39923762 10.1453229 -9.39923762 10.1453229 -9.25 12.4375 C-9.23453125 13.19933594 -9.2190625 13.96117187 -9.203125 14.74609375 C-9.00665883 16.92611261 -8.59405998 18.89683604 -8 21 C-3.96828466 21.35276867 -3.96828466 21.35276867 0 21 C1.78969026 18.57327433 1.78969026 18.57327433 3 16 C4.32 16 5.64 16 7 16 C6.39053254 21.4852071 6.39053254 21.4852071 4.625 23.8125 C0.98770922 26.47052018 -2.66362603 26.44098718 -7 26 C-10.47884669 23.99327106 -12.7062659 21.88120231 -14 18 C-14.99736112 8.9240138 -14.99736112 8.9240138 -12.953125 4.98046875 C-8.9434154 0.13343744 -6.13914185 -0.41621301 0 0 Z " fill="#586073" transform="translate(288,736)"/>
<path d="M0 0 C3.5 0.5625 3.5 0.5625 5.9375 2 C8.26612117 5.81893871 8.25178662 9.20678786 7.5 13.5625 C5.9375 16.625 5.9375 16.625 3.5 18.5625 C-0.07629221 19.06443575 -2.34939263 19.36792516 -5.375 17.25 C-7.87790876 13.49563686 -7.87746309 9.94107182 -7.5 5.5625 C-5.40973646 1.63280455 -4.43218827 0.71231597 0 0 Z " fill="#F7F9F9" transform="translate(191.5,739.4375)"/>
<path d="M0 0 C1.69140625 1.1875 1.69140625 1.1875 3 3 C3.3984375 5.55859375 3.3984375 5.55859375 3.375 8.4375 C3.38273438 9.38496094 3.39046875 10.33242188 3.3984375 11.30859375 C2.93862942 14.41455224 2.21261474 15.79249522 0 18 C-3.4375 18.5625 -3.4375 18.5625 -7 18 C-9.71538955 15.84161344 -10.78632989 14.23796494 -11.37890625 10.8046875 C-11.57174604 7.03498064 -11.42521047 4.69734517 -9.4375 1.4375 C-6.08477323 -0.53974912 -3.82540234 -0.48686939 0 0 Z " fill="#F9FBFB" transform="translate(639,740)"/>
<path d="M0 0 C1.69140625 1.1875 1.69140625 1.1875 3 3 C3.3984375 5.55859375 3.3984375 5.55859375 3.375 8.4375 C3.38273437 9.38496094 3.39046875 10.33242188 3.3984375 11.30859375 C2.93862942 14.41455224 2.21261474 15.79249522 0 18 C-3.4375 18.5625 -3.4375 18.5625 -7 18 C-9.71538955 15.84161344 -10.78632989 14.23796494 -11.37890625 10.8046875 C-11.57174604 7.03498064 -11.42521047 4.69734517 -9.4375 1.4375 C-6.08477323 -0.53974912 -3.82540234 -0.48686939 0 0 Z " fill="#F9FBFB" transform="translate(326,740)"/>
<path d="M0 0 C2 2 2 2 2.3125 5.8125 C2.19698473 10.70857041 0.43581237 13.56418763 -3 17 C-6 17.25 -6 17.25 -9 17 C-11.3941161 14.6058839 -11.29598923 13.96213689 -11.3125 10.6875 C-11.22873735 6.68622284 -10.58422823 4.18058859 -8 1 C-5.23749964 -0.38125018 -3.05268901 -0.19079306 0 0 Z " fill="#F8FBFA" transform="translate(363,741)"/>
<path d="M0 0 C0 2.64 0 5.28 0 8 C1.32 8 2.64 8 4 8 C4 9.32 4 10.64 4 12 C2.68 12 1.36 12 0 12 C0 17.94 0 23.88 0 30 C1.65 30 3.3 30 5 30 C5 31.32 5 32.64 5 34 C1.625 34.125 1.625 34.125 -2 34 C-4 32 -4 32 -4.22705078 29.93701172 C-4.21657715 29.10959473 -4.20610352 28.28217773 -4.1953125 27.4296875 C-4.18886719 26.53378906 -4.18242187 25.63789062 -4.17578125 24.71484375 C-4.15902344 23.77769531 -4.14226562 22.84054687 -4.125 21.875 C-4.11597656 20.93011719 -4.10695313 19.98523438 -4.09765625 19.01171875 C-4.07404522 16.67422708 -4.04111516 14.33723877 -4 12 C-4.99 12 -5.98 12 -7 12 C-7 10.68 -7 9.36 -7 8 C-6.01 8 -5.02 8 -4 8 C-4.061875 7.05125 -4.12375 6.1025 -4.1875 5.125 C-4.125625 4.09375 -4.06375 3.0625 -4 2 C-1 0 -1 0 0 0 Z " fill="#555B74" transform="translate(304,728)"/>
<path d="M0 0 C0 2.64 0 5.28 0 8 C1.32 8 2.64 8 4 8 C4 9.32 4 10.64 4 12 C2.68 12 1.36 12 0 12 C0 17.94 0 23.88 0 30 C1.65 30 3.3 30 5 30 C5 31.32 5 32.64 5 34 C1.625 34.125 1.625 34.125 -2 34 C-4 32 -4 32 -4.22705078 29.93701172 C-4.21657715 29.10959473 -4.20610352 28.28217773 -4.1953125 27.4296875 C-4.18886719 26.53378906 -4.18242187 25.63789062 -4.17578125 24.71484375 C-4.15902344 23.77769531 -4.14226562 22.84054687 -4.125 21.875 C-4.11597656 20.93011719 -4.10695312 19.98523438 -4.09765625 19.01171875 C-4.07404522 16.67422708 -4.04111516 14.33723877 -4 12 C-4.99 12 -5.98 12 -7 12 C-7 10.68 -7 9.36 -7 8 C-6.01 8 -5.02 8 -4 8 C-4.061875 7.05125 -4.12375 6.1025 -4.1875 5.125 C-4.125625 4.09375 -4.06375 3.0625 -4 2 C-1 0 -1 0 0 0 Z " fill="#555B74" transform="translate(240,728)"/>
<path d="M0 0 C1.65 0 3.3 0 5 0 C5 11.55 5 23.1 5 35 C3.35 35 1.7 35 0 35 C0 23.45 0 11.9 0 0 Z " fill="#626C7B" transform="translate(438,727)"/>
<path d="M0 0 C3.77487724 -0.43893921 5.51131488 -0.33526072 8.6875 1.84375 C12.0453619 6.42677772 11.55358387 10.28982495 11.3125 15.8125 C11.27866211 17.28106445 11.27866211 17.28106445 11.24414062 18.77929688 C11.18539727 21.18777455 11.10332129 23.59309078 11 26 C9.35 26 7.7 26 6 26 C5.67 19.07 5.34 12.14 5 5 C2.69 4.67 0.38 4.34 -2 4 C-1.34 2.68 -0.68 1.36 0 0 Z " fill="#616B7B" transform="translate(675,736)"/>
<path d="M0 0 C1.32 0 2.64 0 4 0 C4 11.55 4 23.1 4 35 C2.68 35 1.36 35 0 35 C0 23.45 0 11.9 0 0 Z " fill="#5A5568" transform="translate(449,727)"/>
<path d="M0 0 C1.32 0 2.64 0 4 0 C4 0.99 4 1.98 4 3 C5.65 2.34 7.3 1.68 9 1 C8.51917969 1.78632812 8.03835938 2.57265625 7.54296875 3.3828125 C5.58564677 7.97136984 5.44257045 11.93975531 5.3125 16.875 C5.27833984 17.75414062 5.24417969 18.63328125 5.20898438 19.5390625 C5.1270686 21.69227705 5.06184421 23.84611551 5 26 C3.35 26 1.7 26 0 26 C0 17.42 0 8.84 0 0 Z " fill="#676C78" transform="translate(470,736)"/>
<path d="M0 0 C6.19448947 -0.47649919 6.19448947 -0.47649919 9.21875 1.3125 C12.10059705 5.66054994 11.41773433 10.16635951 11.25 15.25 C11.23195313 16.28125 11.21390625 17.3125 11.1953125 18.375 C11.14822712 20.91761064 11.0824805 23.45833162 11 26 C9.68 26 8.36 26 7 26 C6.67 19.4 6.34 12.8 6 6 C4.02 5.34 2.04 4.68 0 4 C0 2.68 0 1.36 0 0 Z " fill="#595A71" transform="translate(493,736)"/>
<path d="M0 0 C0.33 0 0.66 0 1 0 C1 5.94 1 11.88 1 18 C-5.6 18 -12.2 18 -19 18 C-16.54166667 16.77083333 -14.08333333 15.54166667 -11.625 14.3125 C-6.03303282 11.08960278 -1.88294948 6.21373328 0 0 Z " fill="#FEFDF6" transform="translate(817,665)"/>
<path d="M0 0 C2 1 2 1 3.6875 4.1875 C6.80458564 9.87297081 11.90068473 13.17551355 17 17 C11.39 17 5.78 17 0 17 C0 11.39 0 5.78 0 0 Z " fill="#F9FDFA" transform="translate(25,666)"/>
<path d="M0 0 C1.32 0 2.64 0 4 0 C4 8.58 4 17.16 4 26 C2.68 26 1.36 26 0 26 C0 17.42 0 8.84 0 0 Z " fill="#4A5C7A" transform="translate(460,736)"/>
<path d="M0 0 C0.25 2.3125 0.25 2.3125 0 5 C-1.5625 6.8125 -1.5625 6.8125 -4 8 C-10.15151515 8.42424242 -10.15151515 8.42424242 -13 7 C-12.67 5.35 -12.34 3.7 -12 2 C-10.56342755 1.66269158 -9.12569907 1.33030409 -7.6875 1 C-6.88699219 0.814375 -6.08648438 0.62875 -5.26171875 0.4375 C-3 0 -3 0 0 0 Z " fill="#F3F6F6" transform="translate(577,750)"/>
<path d="M0 0 C0.25 2.3125 0.25 2.3125 0 5 C-1.5625 6.8125 -1.5625 6.8125 -4 8 C-10.15151515 8.42424242 -10.15151515 8.42424242 -13 7 C-12.67 5.35 -12.34 3.7 -12 2 C-10.56342755 1.66269158 -9.12569907 1.33030409 -7.6875 1 C-6.88699219 0.814375 -6.08648437 0.62875 -5.26171875 0.4375 C-3 0 -3 0 0 0 Z " fill="#F3F6F6" transform="translate(264,750)"/>
<path d="M0 0 C0.21620175 2.6664882 0.30894168 4.44004321 -1 6.8125 C-4.23988962 8.73618446 -7.2825819 8.18282384 -11 8 C-11.625 5.625 -11.625 5.625 -12 3 C-8.6463584 -0.3536416 -4.57608788 0 0 0 Z " fill="#F4F8F9" transform="translate(427,750)"/>
<path d="M0 0 C3.5625 0.25 3.5625 0.25 6.5625 2.25 C6.5625 3.57 6.5625 4.89 6.5625 6.25 C2.2725 6.25 -2.0175 6.25 -6.4375 6.25 C-4.96527778 0.36111111 -4.96527778 0.36111111 0 0 Z " fill="#F8FAF9" transform="translate(520.4375,739.75)"/>
<path d="M0 0 C1.65 0 3.3 0 5 0 C5 1.65 5 3.3 5 5 C3.35 5 1.7 5 0 5 C0 3.35 0 1.7 0 0 Z " fill="#4F607B" transform="translate(589,757)"/>
<path d="M0 0 C1.32 0 2.64 0 4 0 C4 1.65 4 3.3 4 5 C2.68 5 1.36 5 0 5 C0 3.35 0 1.7 0 0 Z " fill="#4A5C7A" transform="translate(460,727)"/>
</svg>
